#N canvas 646 154 804 524 10;
#X declare -path ../../common;
#X obj 42 41 netreceive 8000;
#X msg 604 76 \; pd dsp 1;
#X obj 604 42 loadbang;
#X obj 42 78 route 0 1 2 3;
#X obj 42 390 sampler;
#X obj 43 431 dac~;
#X floatatom 42 338 5 0 0 0 - - -;
#X msg 135 370 c4.wav;
#X obj 135 349 loadbang;
#X obj 222 390 sampler;
#X obj 223 431 dac~;
#X floatatom 222 338 5 0 0 0 - - -;
#X obj 315 349 loadbang;
#X obj 402 390 sampler;
#X obj 403 431 dac~;
#X floatatom 402 338 5 0 0 0 - - -;
#X obj 495 349 loadbang;
#X obj 582 390 sampler;
#X obj 583 431 dac~;
#X floatatom 582 338 5 0 0 0 - - -;
#X obj 675 349 loadbang;
#X msg 315 370 d4.wav;
#X msg 495 370 e4.wav;
#X msg 675 370 g4.wav;
#X obj 42 313 expr pow(1-$f1/255 \, 2)/4;
#X obj 222 313 expr pow(1-$f1/255 \, 2)/4;
#X obj 402 313 expr pow(1-$f1/255 \, 2)/4;
#X obj 582 313 expr pow(1-$f1/255 \, 2)/4;
#X obj 605 111 declare -path ../../common;
#X connect 0 0 3 0;
#X connect 2 0 1 0;
#X connect 3 0 24 0;
#X connect 3 1 25 0;
#X connect 3 2 26 0;
#X connect 3 3 27 0;
#X connect 4 0 5 0;
#X connect 4 1 5 1;
#X connect 6 0 4 0;
#X connect 7 0 4 1;
#X connect 8 0 7 0;
#X connect 9 0 10 0;
#X connect 9 1 10 1;
#X connect 11 0 9 0;
#X connect 12 0 21 0;
#X connect 13 0 14 0;
#X connect 13 1 14 1;
#X connect 15 0 13 0;
#X connect 16 0 22 0;
#X connect 17 0 18 0;
#X connect 17 1 18 1;
#X connect 19 0 17 0;
#X connect 20 0 23 0;
#X connect 21 0 9 1;
#X connect 22 0 13 1;
#X connect 23 0 17 1;
#X connect 24 0 6 0;
#X connect 25 0 11 0;
#X connect 26 0 15 0;
#X connect 27 0 19 0;
