#N canvas 528 213 626 300 10;
#X obj 123 178 *~ 0.5;
#X obj 67 58 inlet~;
#X obj 68 268 outlet~;
#X obj 172 60 inlet;
#X obj 347 60 inlet;
#X text 65 39 audio in;
#X obj 70 218 vline~;
#X msg 70 196 \$1 200;
#X obj 173 83 loadbang;
#X msg 173 102 500;
#X obj 69 238 vd~ \$0-delname;
#X text 265 34 feedback level range: 0.0-1.0 default: 0.5;
#X obj 67 143 delwrite~ \$0-delname 2000;
#X text 169 16 delay time range: 0-2000 (ms) default: 500 ms;
#X connect 0 0 12 0;
#X connect 1 0 12 0;
#X connect 3 0 7 0;
#X connect 4 0 0 1;
#X connect 6 0 10 0;
#X connect 7 0 6 0;
#X connect 8 0 9 0;
#X connect 9 0 7 0;
#X connect 10 0 0 0;
#X connect 10 0 2 0;
