#N canvas 646 154 1048 850 10;
#X declare -path ../../common;
#X obj 222 21 netreceive 8000;
#X msg 20 49 \; pd dsp 1;
#X obj 20 15 loadbang;
#X obj 222 135 unpack f f f f;
#X floatatom 304 174 5 0 0 0 - - -;
#X floatatom 345 174 5 0 0 0 - - -;
#X floatatom 157 173 5 0 0 0 - - -;
#X floatatom 263 174 5 0 0 0 - - -;
#X obj 114 265 -;
#X floatatom 485 281 5 0 0 0 - - -;
#X obj 488 300 hsl 128 15 0 1 0 0 empty empty empty -2 -8 0 10 -262144
-1 -1 0 1;
#X obj 289 266 -;
#X floatatom 289 289 5 0 0 0 - - -;
#X text 73 265 pitch;
#X text 255 267 roll;
#X text 438 263 total;
#X obj 292 327 hsl 128 15 -100 100 0 0 empty empty empty -2 -8 0 10
-262144 -1 -1 6350 1;
#X floatatom 114 318 5 0 0 0 - - -;
#X obj 117 354 hsl 128 15 -80 80 0 0 empty empty empty -2 -8 0 10 -262144
-1 -1 6350 1;
#X obj 485 442 vline~;
#X obj 485 368 mtof;
#X floatatom 485 389 5 0 0 0 - - -;
#X obj 289 424 vline~;
#X msg 289 402 \$1 50;
#X msg 485 420 \$1 30;
#X obj 485 261 expr (1020 - $f1 - $f2 - $f3 - $f4)/1000;
#X obj 486 652 vcf~ 10;
#X obj 486 584 phasor~;
#X obj 487 618 expr~ $v1*2 - 1;
#X floatatom 114 532 5 0 0 0 - - -;
#X obj 630 808 dac~;
#X obj 540 705 *~ 5;
#X obj 623 511 > 0.05;
#X obj 193 598 vline~;
#X msg 193 576 \$1 30;
#X obj 623 547 * 5;
#X obj 486 538 +~;
#X obj 501 518 *~;
#X obj 501 498 osc~ 10;
#X obj 289 366 / 2;
#X obj 114 488 expr $f1*20 + 1000;
#X obj 661 713 elektronDelay~;
#X floatatom 700 682 5 0 0 0 - - -;
#X obj 663 754 *~;
#X floatatom 689 731 5 0 0 0 - - -;
#X obj 701 633 abs;
#X obj 704 656 * 4;
#X obj 485 345 expr $f1*48 + 30;
#X obj 548 464 / 50;
#X obj 19 94 declare -path ../../common;
#X connect 0 0 3 0;
#X connect 2 0 1 0;
#X connect 3 0 6 0;
#X connect 3 1 7 0;
#X connect 3 2 4 0;
#X connect 3 3 5 0;
#X connect 4 0 25 2;
#X connect 4 0 8 0;
#X connect 5 0 25 3;
#X connect 5 0 11 0;
#X connect 6 0 25 0;
#X connect 6 0 8 1;
#X connect 7 0 25 1;
#X connect 7 0 11 1;
#X connect 8 0 17 0;
#X connect 9 0 10 0;
#X connect 10 0 32 0;
#X connect 10 0 44 0;
#X connect 10 0 47 0;
#X connect 11 0 12 0;
#X connect 12 0 16 0;
#X connect 16 0 39 0;
#X connect 16 0 45 0;
#X connect 17 0 18 0;
#X connect 18 0 40 0;
#X connect 19 0 36 0;
#X connect 20 0 21 0;
#X connect 21 0 24 0;
#X connect 21 0 48 0;
#X connect 22 0 37 1;
#X connect 23 0 22 0;
#X connect 24 0 19 0;
#X connect 25 0 9 0;
#X connect 26 1 31 0;
#X connect 27 0 28 0;
#X connect 28 0 26 0;
#X connect 29 0 34 0;
#X connect 31 0 30 0;
#X connect 31 0 30 1;
#X connect 31 0 41 0;
#X connect 32 0 35 0;
#X connect 33 0 26 1;
#X connect 34 0 33 0;
#X connect 35 0 31 1;
#X connect 36 0 27 0;
#X connect 37 0 36 1;
#X connect 38 0 37 0;
#X connect 39 0 23 0;
#X connect 40 0 29 0;
#X connect 42 0 41 1;
#X connect 43 0 30 0;
#X connect 43 0 30 1;
#X connect 44 0 43 1;
#X connect 45 0 46 0;
#X connect 46 0 42 0;
#X connect 47 0 20 0;
#X connect 48 0 38 0;
