#N canvas 233 117 1606 850 10;
#X obj 592 21 netreceive 8000;
#X msg 20 49 \; pd dsp 1;
#X obj 20 15 loadbang;
#X floatatom 274 174 5 0 0 0 - - -, f 5;
#X floatatom 315 174 5 0 0 0 - - -, f 5;
#X floatatom 147 173 5 0 0 0 - - -, f 5;
#X floatatom 233 174 5 0 0 0 - - -, f 5;
#X obj 104 265 -;
#X floatatom 425 281 5 0 0 0 - - -, f 5;
#X obj 428 300 hsl 128 15 0 1 0 0 empty empty empty -2 -8 0 10 -262144
-1 -1 0 1;
#X obj 259 266 -;
#X floatatom 259 289 5 0 0 0 - - -, f 5;
#X text 63 265 pitch;
#X text 225 267 roll;
#X text 378 263 total;
#X obj 262 327 hsl 128 15 -100 100 0 0 empty empty empty -2 -8 0 10
-262144 -1 -1 6350 1;
#X floatatom 104 318 5 0 0 0 - - -, f 5;
#X obj 107 354 hsl 128 15 -80 80 0 0 empty empty empty -2 -8 0 10 -262144
-1 -1 6350 1;
#X obj 425 442 vline~;
#X obj 425 368 mtof;
#X floatatom 425 389 5 0 0 0 - - -, f 5;
#X obj 259 424 vline~;
#X msg 259 402 \$1 50;
#X msg 425 420 \$1 30;
#X obj 425 261 expr (1020 - $f1 - $f2 - $f3 - $f4)/1000;
#X obj 426 652 vcf~ 10;
#X obj 426 584 phasor~;
#X obj 427 618 expr~ $v1*2 - 1;
#X floatatom 104 532 5 0 0 0 - - -, f 5;
#X obj 570 808 dac~;
#X obj 563 511 > 0.05;
#X obj 183 598 vline~;
#X msg 183 576 \$1 30;
#X obj 563 547 * 5;
#X obj 426 538 +~;
#X obj 441 518 *~;
#X obj 441 498 osc~ 10;
#X obj 259 366 / 2;
#X obj 104 488 expr $f1*20 + 1000;
#X obj 601 713 elektronDelay~;
#X floatatom 640 682 5 0 0 0 - - -, f 5;
#X obj 603 754 *~;
#X floatatom 629 731 5 0 0 0 - - -, f 5;
#X obj 641 633 abs;
#X obj 644 656 * 4;
#X obj 425 345 expr $f1*48 + 30;
#X obj 488 464 / 50;
#X floatatom 1024 174 5 0 0 0 - - -, f 5;
#X floatatom 1065 174 5 0 0 0 - - -, f 5;
#X floatatom 897 173 5 0 0 0 - - -, f 5;
#X floatatom 983 174 5 0 0 0 - - -, f 5;
#X obj 854 265 -;
#X floatatom 1175 281 5 0 0 0 - - -, f 5;
#X obj 1178 300 hsl 128 15 0 1 0 0 empty empty empty -2 -8 0 10 -262144
-1 -1 0 1;
#X obj 1009 266 -;
#X floatatom 1009 289 5 0 0 0 - - -, f 5;
#X text 813 265 pitch;
#X text 975 267 roll;
#X text 1128 263 total;
#X obj 1012 327 hsl 128 15 -100 100 0 0 empty empty empty -2 -8 0 10
-262144 -1 -1 6350 1;
#X floatatom 854 318 5 0 0 0 - - -, f 5;
#X obj 857 354 hsl 128 15 -80 80 0 0 empty empty empty -2 -8 0 10 -262144
-1 -1 6350 1;
#X obj 1175 442 vline~;
#X obj 1175 368 mtof;
#X floatatom 1175 389 5 0 0 0 - - -, f 5;
#X obj 1009 424 vline~;
#X msg 1009 402 \$1 50;
#X msg 1175 420 \$1 30;
#X obj 1175 261 expr (1020 - $f1 - $f2 - $f3 - $f4)/1000;
#X obj 1176 652 vcf~ 10;
#X obj 1176 584 phasor~;
#X obj 1177 618 expr~ $v1*2 - 1;
#X floatatom 854 532 5 0 0 0 - - -, f 5;
#X obj 1320 808 dac~;
#X obj 1313 511 > 0.05;
#X obj 933 598 vline~;
#X msg 933 576 \$1 30;
#X obj 1313 547 * 5;
#X obj 1176 538 +~;
#X obj 1191 518 *~;
#X obj 1191 498 osc~ 10;
#X obj 1009 366 / 2;
#X obj 854 488 expr $f1*20 + 1000;
#X obj 1351 713 elektronDelay~;
#X floatatom 1390 682 5 0 0 0 - - -, f 5;
#X obj 1353 754 *~;
#X floatatom 1379 731 5 0 0 0 - - -, f 5;
#X obj 1391 633 abs;
#X obj 1394 656 * 4;
#X obj 1238 464 / 50;
#X obj 592 65 unpack f f f f f f f f;
#X obj 1175 345 expr $f1*48 + 42;
#X obj 480 705 *~ 2.5;
#X obj 1230 704 *~ 2.5;
#X connect 0 0 90 0;
#X connect 2 0 1 0;
#X connect 3 0 24 2;
#X connect 3 0 7 0;
#X connect 4 0 24 3;
#X connect 4 0 10 0;
#X connect 5 0 24 0;
#X connect 5 0 7 1;
#X connect 6 0 24 1;
#X connect 6 0 10 1;
#X connect 7 0 16 0;
#X connect 8 0 9 0;
#X connect 9 0 30 0;
#X connect 9 0 42 0;
#X connect 9 0 45 0;
#X connect 10 0 11 0;
#X connect 11 0 15 0;
#X connect 15 0 37 0;
#X connect 15 0 43 0;
#X connect 16 0 17 0;
#X connect 17 0 38 0;
#X connect 18 0 34 0;
#X connect 19 0 20 0;
#X connect 20 0 23 0;
#X connect 20 0 46 0;
#X connect 21 0 35 1;
#X connect 22 0 21 0;
#X connect 23 0 18 0;
#X connect 24 0 8 0;
#X connect 25 1 92 0;
#X connect 26 0 27 0;
#X connect 27 0 25 0;
#X connect 28 0 32 0;
#X connect 30 0 33 0;
#X connect 31 0 25 1;
#X connect 32 0 31 0;
#X connect 33 0 92 1;
#X connect 34 0 26 0;
#X connect 35 0 34 1;
#X connect 36 0 35 0;
#X connect 37 0 22 0;
#X connect 38 0 28 0;
#X connect 40 0 39 1;
#X connect 41 0 29 0;
#X connect 41 0 29 1;
#X connect 42 0 41 1;
#X connect 43 0 44 0;
#X connect 44 0 40 0;
#X connect 45 0 19 0;
#X connect 46 0 36 0;
#X connect 47 0 68 2;
#X connect 47 0 51 0;
#X connect 48 0 68 3;
#X connect 48 0 54 0;
#X connect 49 0 68 0;
#X connect 49 0 51 1;
#X connect 50 0 68 1;
#X connect 50 0 54 1;
#X connect 51 0 60 0;
#X connect 52 0 53 0;
#X connect 53 0 74 0;
#X connect 53 0 86 0;
#X connect 53 0 91 0;
#X connect 54 0 55 0;
#X connect 55 0 59 0;
#X connect 59 0 81 0;
#X connect 59 0 87 0;
#X connect 60 0 61 0;
#X connect 61 0 82 0;
#X connect 62 0 78 0;
#X connect 63 0 64 0;
#X connect 64 0 67 0;
#X connect 64 0 89 0;
#X connect 65 0 79 1;
#X connect 66 0 65 0;
#X connect 67 0 62 0;
#X connect 68 0 52 0;
#X connect 69 1 93 0;
#X connect 70 0 71 0;
#X connect 71 0 69 0;
#X connect 72 0 76 0;
#X connect 74 0 77 0;
#X connect 75 0 69 1;
#X connect 76 0 75 0;
#X connect 77 0 93 1;
#X connect 78 0 70 0;
#X connect 79 0 78 1;
#X connect 80 0 79 0;
#X connect 81 0 66 0;
#X connect 82 0 72 0;
#X connect 84 0 83 1;
#X connect 85 0 73 0;
#X connect 85 0 73 1;
#X connect 86 0 85 1;
#X connect 87 0 88 0;
#X connect 88 0 84 0;
#X connect 89 0 80 0;
#X connect 90 0 5 0;
#X connect 90 1 6 0;
#X connect 90 2 3 0;
#X connect 90 3 4 0;
#X connect 90 4 49 0;
#X connect 90 5 50 0;
#X connect 90 6 47 0;
#X connect 90 7 48 0;
#X connect 91 0 63 0;
#X connect 92 0 29 0;
#X connect 92 0 29 1;
#X connect 92 0 39 0;
#X connect 93 0 73 0;
#X connect 93 0 73 1;
#X connect 93 0 83 0;
