#N canvas 861 317 898 636 10;
#X declare -path ../../common;
#X obj 398 89 netreceive 8000;
#X msg 83 85 \; pd dsp 1;
#X obj 83 51 loadbang;
#X obj 72 320 sampler;
#X obj 73 361 dac~;
#X floatatom 72 268 5 0 0 0 - - -;
#X msg 165 300 c4.wav;
#X obj 165 279 loadbang;
#X obj 252 320 sampler;
#X obj 253 361 dac~;
#X floatatom 252 268 5 0 0 0 - - -;
#X obj 345 279 loadbang;
#X obj 432 320 sampler;
#X obj 433 361 dac~;
#X floatatom 432 268 5 0 0 0 - - -;
#X obj 525 279 loadbang;
#X obj 612 320 sampler;
#X obj 613 361 dac~;
#X floatatom 612 268 5 0 0 0 - - -;
#X obj 705 279 loadbang;
#X msg 345 300 d4.wav;
#X msg 525 300 e4.wav;
#X obj 398 126 route 0 1 2 3 4 5 6 7;
#X obj 69 484 sampler;
#X obj 70 525 dac~;
#X floatatom 69 432 5 0 0 0 - - -;
#X obj 162 443 loadbang;
#X obj 249 484 sampler;
#X obj 250 525 dac~;
#X floatatom 249 432 5 0 0 0 - - -;
#X obj 342 443 loadbang;
#X obj 429 484 sampler;
#X obj 430 525 dac~;
#X floatatom 429 432 5 0 0 0 - - -;
#X obj 522 443 loadbang;
#X obj 609 484 sampler;
#X obj 610 525 dac~;
#X floatatom 609 432 5 0 0 0 - - -;
#X obj 702 443 loadbang;
#X msg 705 300 f4.wav;
#X msg 162 464 g4.wav;
#X msg 342 464 a4.wav;
#X msg 522 464 b4.wav;
#X msg 702 464 c5.wav;
#X obj 676 167 print;
#X obj 71 223 expr pow(1-$f1/128 \, 2)/8;
#X obj 253 229 expr pow(1-$f1/128 \, 2)/8;
#X obj 433 240 expr pow(1-$f1/128 \, 2)/8;
#X obj 618 239 expr pow(1-$f1/128 \, 2)/8;
#X obj 67 400 expr pow(1-$f1/128 \, 2)/8;
#X obj 249 406 expr pow(1-$f1/128 \, 2)/8;
#X obj 429 407 expr pow(1-$f1/128 \, 2)/8;
#X obj 615 406 expr pow(1-$f1/128 \, 2)/8;
#X obj 84 120 declare -path ../../common;
#X connect 0 0 22 0;
#X connect 0 0 44 0;
#X connect 2 0 1 0;
#X connect 3 0 4 0;
#X connect 3 1 4 1;
#X connect 5 0 3 0;
#X connect 6 0 3 1;
#X connect 7 0 6 0;
#X connect 8 0 9 0;
#X connect 8 1 9 1;
#X connect 10 0 8 0;
#X connect 11 0 20 0;
#X connect 12 0 13 0;
#X connect 12 1 13 1;
#X connect 14 0 12 0;
#X connect 15 0 21 0;
#X connect 16 0 17 0;
#X connect 16 1 17 1;
#X connect 18 0 16 0;
#X connect 19 0 39 0;
#X connect 20 0 8 1;
#X connect 21 0 12 1;
#X connect 22 0 45 0;
#X connect 22 1 46 0;
#X connect 22 2 47 0;
#X connect 22 3 48 0;
#X connect 22 4 49 0;
#X connect 22 5 50 0;
#X connect 22 6 51 0;
#X connect 22 7 52 0;
#X connect 23 0 24 0;
#X connect 23 1 24 1;
#X connect 25 0 23 0;
#X connect 26 0 40 0;
#X connect 27 0 28 0;
#X connect 27 1 28 1;
#X connect 29 0 27 0;
#X connect 30 0 41 0;
#X connect 31 0 32 0;
#X connect 31 1 32 1;
#X connect 33 0 31 0;
#X connect 34 0 42 0;
#X connect 35 0 36 0;
#X connect 35 1 36 1;
#X connect 37 0 35 0;
#X connect 38 0 43 0;
#X connect 39 0 16 1;
#X connect 40 0 23 1;
#X connect 41 0 27 1;
#X connect 42 0 31 1;
#X connect 43 0 35 1;
#X connect 45 0 5 0;
#X connect 46 0 10 0;
#X connect 47 0 14 0;
#X connect 48 0 18 0;
#X connect 49 0 25 0;
#X connect 50 0 29 0;
#X connect 51 0 33 0;
#X connect 52 0 37 0;
