#N canvas 651 80 1238 974 10;
#X declare -path ../../common;
#X obj 502 111 netreceive 8000;
#X msg 20 49 \; pd dsp 1;
#X obj 20 15 loadbang;
#X obj 502 145 unpack f f f f;
#X floatatom 584 184 5 0 0 0 - - -;
#X floatatom 625 184 5 0 0 0 - - -;
#X floatatom 502 184 5 0 0 0 - - -;
#X floatatom 543 184 5 0 0 0 - - -;
#X obj 140 587 *~;
#X obj 156 564 vline~;
#X obj 320 613 *~ 0.2;
#X obj 320 587 *~;
#X obj 336 564 vline~;
#X obj 500 613 *~ 0.2;
#X obj 500 587 *~;
#X obj 516 564 vline~;
#X obj 680 613 *~ 0.2;
#X obj 680 587 *~;
#X obj 696 564 vline~;
#X obj 201 76 asdf, f 8;
#X obj 139 374 mtof;
#X obj 320 375 mtof;
#X obj 500 376 mtof;
#X obj 680 376 mtof;
#X obj 156 267 unpack f f f f;
#X msg 156 144 60 64 67 70;
#X msg 156 544 \$1 200;
#X msg 336 544 \$1 200;
#X msg 516 544 \$1 200;
#X msg 696 544 \$1 200;
#X msg 246 204 58 63 65 69;
#X msg 216 184 57 60 67 74;
#X obj 497 719 elektronDelay~;
#X obj 448 822 dac~;
#X obj 454 668 *~ 1;
#X msg 186 164 62 65 69 70;
#X obj 708 473 expr (255-$f1)/255;
#X obj 361 474 expr (255-$f1)/255;
#X obj 542 472 expr (255-$f1)/255;
#X obj 169 464 expr (255-$f1)/255;
#X obj 140 613 *~ 0.2;
#X obj 169 482 pow 8;
#X obj 361 492 pow 8;
#X obj 542 490 pow 8;
#X obj 708 490 pow 8;
#X obj 708 509 / 4;
#X obj 542 508 / 4;
#X obj 361 510 / 4;
#X obj 169 500 / 4;
#X obj 139 399 phasor~ 200;
#X obj 320 399 phasor~ 400;
#X obj 500 399 phasor~ 600;
#X obj 680 399 phasor~ 800;
#X obj 93 16 declare -path ../../common;
#X connect 0 0 3 0;
#X connect 2 0 1 0;
#X connect 3 0 6 0;
#X connect 3 1 7 0;
#X connect 3 2 4 0;
#X connect 3 3 5 0;
#X connect 4 0 38 0;
#X connect 5 0 36 0;
#X connect 6 0 39 0;
#X connect 7 0 37 0;
#X connect 8 0 40 0;
#X connect 9 0 8 1;
#X connect 10 0 34 0;
#X connect 11 0 10 0;
#X connect 12 0 11 1;
#X connect 13 0 34 0;
#X connect 14 0 13 0;
#X connect 15 0 14 1;
#X connect 16 0 34 0;
#X connect 17 0 16 0;
#X connect 18 0 17 1;
#X connect 19 0 25 0;
#X connect 19 1 35 0;
#X connect 19 2 31 0;
#X connect 19 3 30 0;
#X connect 20 0 49 0;
#X connect 21 0 50 0;
#X connect 22 0 51 0;
#X connect 23 0 52 0;
#X connect 24 0 20 0;
#X connect 24 1 21 0;
#X connect 24 2 22 0;
#X connect 24 3 23 0;
#X connect 25 0 24 0;
#X connect 26 0 9 0;
#X connect 27 0 12 0;
#X connect 28 0 15 0;
#X connect 29 0 18 0;
#X connect 30 0 24 0;
#X connect 31 0 24 0;
#X connect 32 0 33 0;
#X connect 32 0 33 1;
#X connect 34 0 33 0;
#X connect 34 0 33 1;
#X connect 34 0 32 0;
#X connect 35 0 24 0;
#X connect 36 0 44 0;
#X connect 37 0 42 0;
#X connect 38 0 43 0;
#X connect 39 0 41 0;
#X connect 40 0 34 0;
#X connect 41 0 48 0;
#X connect 42 0 47 0;
#X connect 43 0 46 0;
#X connect 44 0 45 0;
#X connect 45 0 29 0;
#X connect 46 0 28 0;
#X connect 47 0 27 0;
#X connect 48 0 26 0;
#X connect 49 0 8 0;
#X connect 50 0 11 0;
#X connect 51 0 14 0;
#X connect 52 0 17 0;
